<?xml version="1.0" encoding="UTF-8"?><svg xmlns="http://www.w3.org/2000/svg" xmlns:xlink="http://www.w3.org/1999/xlink" viewBox="0 0 364.81 230.02"><defs><radialGradient id="radial-gradient" cx="-263.05" cy="-898.31" fx="-263.05" fy="-898.31" r="24.09" gradientTransform="translate(1412.7 577.88) scale(4.39 .49)" gradientUnits="userSpaceOnUse"><stop offset="0" stop-color="#fff"/><stop offset=".12" stop-color="#fff"/><stop offset="1" stop-color="#fff" stop-opacity="0"/></radialGradient></defs><g style="isolation:isolate;"><g id="Layer_2"><g id="Layer_1-2"><path d="M268.69,54.07c-.68-.04-1.28.49-1.31,1.18-.04.69.49,1.28,1.18,1.31,20.09,1.04,37.31,7.51,42.44,15.16.16-1.16.28-2.34.36-3.52-6.98-7.45-23.14-13.12-42.67-14.14Z" style="fill:#fff; stroke-width:0px;"/><path d="M260.06,118.7c-29.73,0-53.92-24.19-53.92-53.92s24.19-53.92,53.92-53.92,53.92,24.19,53.92,53.92-24.19,53.92-53.92,53.92ZM260.06,13.36c-28.35,0-51.42,23.07-51.42,51.42s23.07,51.42,51.42,51.42,51.42-23.07,51.42-51.42-23.07-51.42-51.42-51.42Z" style="fill:#fff; stroke-width:0px;"/><ellipse cx="259.19" cy="136.9" rx="105.62" ry="11.82" style="fill:url(#radial-gradient); mix-blend-mode:multiply; opacity:.5; stroke-width:0px;"/><path d="M228.64,62.79c-.07,0-.14-.01-.21-.04-.28-.11-.42-.43-.3-.72,6.92-17.11,17.66-28.25,31.92-33.1,28.86-9.83,62.75,9.71,63.09,9.91.26.15.35.49.2.75-.15.26-.49.35-.75.2-.33-.19-33.8-19.49-62.19-9.82-13.94,4.75-24.45,15.67-31.25,32.47-.09.21-.29.34-.51.34Z" style="fill:#fff; stroke-width:0px;"/><rect x="225.04" y="58.6" width="7.41" height="6.64" transform="translate(380.99 -119.68) rotate(114.83)" style="fill:#fff; stroke-width:0px;"/><rect x="298.48" y="67.89" width="3.86" height="3.46" transform="translate(491.33 -172.55) rotate(115.2)" style="fill:#fff; stroke-width:0px;"/><rect x="220.73" y="73.36" width="3.86" height="3.46" transform="translate(385.41 -94.4) rotate(115.2)" style="fill:#fff; stroke-width:0px;"/><rect x="270.95" y="19.16" width="3.59" height="3.22" transform="translate(172.5 -233.73) rotate(64.15)" style="fill:#fff; stroke-width:0px;"/><rect x="248.23" y="73.81" width="8.08" height="7.24" transform="translate(246.21 -186.39) rotate(71.62)" style="fill:#fff; stroke-width:0px;"/><rect x="226.02" y="27.77" width="9.01" height="3.65" transform="translate(60.28 187.82) rotate(-50.22)" style="fill:#fff; stroke-width:0px;"/><rect x="240.17" y="105.85" width="9.01" height="4.08" transform="translate(60.09 -85.59) rotate(22.55)" style="fill:#fff; stroke-width:0px;"/><path d="M264.71,127.14c-.67,0-1.35-.01-2.03-.03-.31,0-.56-.26-.55-.57,0-.3.23-.52.58-.53.66.02,1.33.03,1.99.03h.24s0,0,0,0c.31,0,.56.24.56.55,0,.3-.25.55-.56.55h-.25ZM267.21,127.1c-.3,0-.55-.23-.56-.53-.01-.3.23-.56.54-.57.75-.03,1.49-.07,2.24-.12.3-.03.58.21.6.51.02.3-.21.57-.52.59-.76.05-1.51.09-2.27.12h-.02ZM260.45,127.01s-.02,0-.04,0c-.76-.05-1.51-.11-2.27-.18-.31-.03-.54-.3-.51-.6.03-.3.31-.53.62-.49.74.07,1.48.13,2.23.18.31.02.55.28.53.58-.02.29-.27.52-.56.52ZM271.71,126.78c-.28,0-.53-.21-.56-.49-.03-.3.19-.57.5-.61.74-.08,1.49-.16,2.22-.27.3-.05.59.17.64.47.04.3-.17.58-.48.62-.75.1-1.5.19-2.26.27-.02,0-.04,0-.06,0ZM255.96,126.58s-.05,0-.08,0c-.75-.1-1.5-.21-2.25-.33-.31-.05-.51-.33-.46-.63.05-.3.35-.5.65-.45.73.12,1.47.23,2.21.32.31.04.53.32.48.62-.04.28-.28.48-.56.48ZM276.17,126.18c-.27,0-.51-.19-.55-.46-.05-.3.15-.58.46-.64.73-.13,1.47-.26,2.19-.41.3-.06.6.13.67.43.06.3-.13.59-.44.65-.74.15-1.48.29-2.23.42-.03,0-.06,0-.1,0ZM251.52,125.85s-.08,0-.11-.01c-.74-.15-1.48-.31-2.22-.48-.3-.07-.49-.37-.42-.66.07-.3.38-.47.68-.41.72.17,1.45.33,2.18.47.3.06.5.35.44.65-.06.26-.29.44-.55.44ZM280.58,125.27c-.25,0-.48-.17-.55-.42-.07-.3.11-.59.41-.67.72-.17,1.44-.36,2.16-.56.3-.08.61.09.7.38.09.29-.09.6-.39.68-.73.2-1.46.39-2.2.57-.04.01-.09.02-.13.02ZM247.14,124.82s-.1,0-.15-.02c-.73-.2-1.46-.41-2.18-.63-.3-.09-.46-.4-.37-.69.1-.29.41-.45.71-.36.71.22,1.42.43,2.14.62.3.08.47.38.39.68-.07.24-.29.4-.54.4ZM284.92,124.07c-.24,0-.46-.15-.54-.38-.1-.29.07-.6.36-.69.71-.22,1.41-.46,2.11-.71.29-.1.62.04.72.33.11.29-.04.6-.34.71-.71.25-1.43.49-2.15.72-.06.02-.12.03-.17.03ZM242.85,123.49c-.06,0-.13-.01-.19-.03-.71-.25-1.42-.51-2.13-.79-.29-.11-.43-.43-.31-.72.11-.28.44-.42.73-.31.69.27,1.39.53,2.09.77.29.1.45.42.34.7-.08.23-.3.37-.53.37ZM289.15,122.56c-.22,0-.43-.13-.52-.34-.12-.28.02-.6.31-.72.69-.27,1.37-.56,2.05-.86.28-.13.62,0,.75.27s0,.6-.28.73c-.69.3-1.39.6-2.09.88-.07.03-.14.04-.21.04ZM238.66,121.86c-.08,0-.15-.02-.23-.05-.69-.3-1.38-.61-2.06-.94-.28-.13-.4-.46-.26-.74.14-.27.47-.39.75-.25.67.32,1.34.63,2.02.92.28.12.41.45.29.73-.09.21-.3.33-.52.33ZM293.25,120.75c-.21,0-.41-.11-.5-.3-.14-.27-.03-.6.25-.74.67-.33,1.32-.66,1.97-1.01.27-.14.61-.05.76.22.15.27.05.6-.22.75-.66.36-1.33.7-2.01,1.03-.08.04-.17.06-.25.06ZM234.62,119.92c-.09,0-.18-.02-.27-.07-.67-.35-1.33-.71-1.98-1.09-.27-.15-.36-.49-.2-.75.16-.26.5-.35.77-.2.64.37,1.29.72,1.95,1.07.27.14.38.48.23.75-.1.19-.3.29-.5.29ZM297.19,118.62c-.19,0-.37-.09-.48-.27-.16-.26-.08-.6.19-.76.64-.38,1.26-.77,1.88-1.17.26-.17.61-.1.78.15.17.25.1.59-.16.76-.63.41-1.27.81-1.92,1.2-.09.05-.19.08-.29.08ZM230.73,117.7c-.1,0-.21-.03-.3-.09-.64-.4-1.27-.81-1.89-1.23-.26-.17-.32-.52-.14-.77.18-.25.53-.31.78-.14.61.42,1.23.82,1.86,1.21.26.16.34.5.17.76-.11.16-.29.25-.48.25ZM300.94,116.18c-.17,0-.34-.08-.45-.22-.18-.25-.13-.59.12-.77.6-.43,1.19-.87,1.76-1.33.24-.19.6-.15.79.08.19.24.16.58-.09.77-.59.46-1.19.92-1.81,1.36-.1.07-.22.11-.33.11ZM227.02,115.19c-.12,0-.24-.04-.34-.11-.6-.44-1.2-.9-1.79-1.37-.24-.19-.28-.54-.08-.77.2-.24.55-.27.79-.08.58.46,1.17.91,1.76,1.34.25.18.3.53.11.77-.11.14-.28.22-.45.22ZM304.44,113.41c-.16,0-.31-.06-.42-.18-.21-.23-.18-.58.05-.78.56-.48,1.1-.98,1.62-1.48.22-.21.58-.21.8,0,.22.22.21.57,0,.78-.54.52-1.1,1.03-1.67,1.52-.11.09-.24.14-.37.14ZM223.52,112.41c-.13,0-.26-.04-.36-.13-.57-.47-1.14-.94-1.73-1.4-.24-.19-.28-.54-.08-.77.2-.24.55-.27.79-.08.59.47,1.17.94,1.74,1.41.24.2.27.54.07.78-.11.13-.27.19-.43.19ZM307.66,110.33c-.14,0-.27-.05-.38-.15-.23-.21-.24-.55-.03-.78.5-.53.99-1.08,1.46-1.64.2-.23.55-.27.79-.07.24.19.27.54.08.78-.48.57-.99,1.13-1.5,1.68-.11.12-.26.18-.41.18ZM220.02,109.63c-.12,0-.24-.04-.35-.12-.59-.45-1.18-.9-1.78-1.34-.25-.18-.3-.53-.11-.77.19-.24.54-.29.79-.11.6.45,1.2.89,1.8,1.35.25.19.29.53.1.77-.11.14-.28.21-.44.21ZM216.42,106.98c-.12,0-.23-.03-.33-.11-.6-.43-1.21-.86-1.82-1.28-.25-.17-.32-.52-.14-.77.18-.25.53-.31.78-.13.62.42,1.23.85,1.84,1.29.25.18.31.52.12.77-.11.15-.28.23-.45.23ZM310.53,106.93c-.12,0-.23-.03-.33-.11-.25-.18-.3-.53-.12-.77.44-.58.86-1.18,1.27-1.78.17-.26.52-.32.78-.16.26.17.33.51.16.76-.42.62-.85,1.23-1.3,1.83-.11.15-.28.22-.45.22ZM212.74,104.44c-.11,0-.22-.03-.32-.1-.62-.41-1.24-.82-1.86-1.22-.26-.17-.33-.51-.16-.76.17-.25.52-.32.78-.16.63.41,1.25.82,1.87,1.23.26.17.32.51.15.77-.11.16-.29.24-.46.24ZM312.99,103.25c-.1,0-.19-.02-.28-.07-.27-.15-.36-.49-.21-.75.37-.62.72-1.26,1.05-1.91.14-.27.48-.38.76-.25.28.14.39.47.25.74-.34.67-.7,1.32-1.08,1.96-.1.18-.29.28-.49.28ZM208.99,102.01c-.1,0-.21-.03-.3-.09-.63-.4-1.26-.79-1.9-1.18-.26-.16-.34-.5-.18-.76.17-.26.51-.33.78-.18.64.39,1.27.78,1.91,1.18.26.16.34.51.17.76-.11.16-.29.25-.47.25ZM205.17,99.68c-.1,0-.2-.03-.29-.08-.64-.38-1.28-.76-1.93-1.13-.27-.15-.36-.49-.2-.75.16-.26.51-.35.77-.19.65.37,1.29.75,1.94,1.14.27.16.35.5.19.76-.11.17-.29.26-.48.26ZM315,99.32c-.07,0-.15-.01-.22-.04-.29-.12-.42-.44-.3-.72.29-.66.56-1.33.81-2.02.1-.29.43-.43.72-.33.29.1.45.42.34.7-.26.7-.54,1.4-.83,2.08-.09.21-.3.33-.52.33ZM201.29,97.44c-.1,0-.19-.02-.28-.07-.65-.37-1.3-.73-1.95-1.09-.27-.15-.37-.48-.22-.75.15-.27.49-.36.77-.21.65.36,1.31.72,1.97,1.09.27.15.36.49.21.75-.1.18-.29.28-.49.28ZM197.36,95.28c-.09,0-.18-.02-.27-.07-.66-.35-1.32-.7-1.98-1.04-.27-.14-.38-.48-.23-.74.15-.27.49-.37.76-.23.66.34,1.32.69,1.99,1.05.27.15.37.48.22.75-.1.18-.29.29-.49.29ZM316.52,95.18c-.05,0-.1,0-.16-.02-.3-.09-.47-.39-.38-.68.21-.69.39-1.39.55-2.1.07-.3.37-.48.67-.42.3.07.49.36.43.66-.17.73-.36,1.45-.57,2.16-.07.24-.3.4-.54.4ZM193.38,93.21c-.09,0-.18-.02-.26-.06-.67-.34-1.34-.68-2-1-.28-.14-.39-.47-.25-.74.14-.27.48-.38.76-.24.66.33,1.33.67,2.01,1.01.28.14.38.47.24.74-.1.19-.3.3-.5.3ZM189.36,91.21c-.08,0-.17-.02-.25-.06-.68-.33-1.36-.65-2.02-.97-.28-.13-.4-.46-.26-.74.14-.28.47-.39.75-.26.67.32,1.34.64,2.03.97.28.13.39.47.25.74-.1.19-.3.31-.5.31ZM317.51,90.89s-.06,0-.09,0c-.31-.05-.52-.33-.46-.63.12-.71.22-1.42.29-2.15.03-.3.3-.52.62-.49.31.03.53.3.5.6-.08.75-.18,1.48-.3,2.21-.04.27-.28.46-.55.46ZM185.3,89.29c-.08,0-.16-.02-.24-.05-.69-.32-1.37-.63-2.04-.93-.28-.13-.41-.45-.28-.73.13-.28.46-.4.75-.27.67.3,1.35.61,2.05.93.28.13.4.46.27.73-.1.2-.3.32-.51.32ZM181.21,87.45c-.08,0-.16-.02-.23-.05-.7-.31-1.39-.61-2.06-.89-.28-.12-.41-.45-.29-.73.12-.28.46-.41.74-.28.67.29,1.36.59,2.07.9.28.12.41.45.28.73-.09.2-.3.32-.51.32ZM317.97,86.51s-.02,0-.03,0c-.31-.01-.55-.27-.54-.58.01-.27.02-.54.03-.81,0-.3.26-.54.56-.54h.02c.31,0,.56.26.55.57,0,.28-.02.56-.03.83-.01.3-.26.52-.56.52ZM177.08,85.68c-.07,0-.15-.01-.22-.04-.72-.3-1.41-.59-2.07-.86-.29-.12-.42-.44-.3-.72.12-.28.45-.41.74-.3.66.27,1.36.56,2.08.86.29.12.42.44.3.72-.09.21-.3.33-.52.33ZM172.91,83.98c-.07,0-.14-.01-.21-.04-.76-.3-1.46-.57-2.09-.82-.29-.11-.43-.43-.32-.71s.44-.42.73-.31c.64.25,1.34.52,2.1.82.29.11.43.44.31.72-.09.21-.3.34-.52.34ZM168.71,82.37c-.07,0-.13-.01-.2-.04-1.35-.5-2.11-.76-2.11-.76-.29-.1-.45-.41-.35-.7.1-.29.43-.44.72-.34,0,0,.76.26,2.14.77.29.11.44.43.33.71-.09.22-.3.36-.53.36Z" style="fill:#fff; stroke-width:0px;"/><rect x="315.3" y="81.29" width="5.89" height="5.28" transform="translate(422.35 -228.29) rotate(93.67)" style="fill:#fff; stroke-width:0px;"/><rect x="319.91" y="36.67" width="5.89" height="5.28" transform="translate(518.34 -220.64) rotate(120)" style="fill:#fff; stroke-width:0px;"/><path d="M220.75,126.46c-.3,0-.55-.24-.55-.54-.45-31.08,8.78-54.9,27.44-70.78,36.95-31.47,99.04-20.97,99.67-20.86.3.05.5.34.45.64-.05.3-.34.5-.64.45-.62-.11-62.22-10.51-98.77,20.62-18.39,15.66-27.49,39.19-27.04,69.93,0,.3-.24.55-.54.56h0Z" style="fill:#fff; stroke-width:0px;"/><rect x="266.21" y="52.47" width="6.33" height="5.68" transform="translate(341.8 -209.98) rotate(93.67)" style="fill:#fff; stroke-width:0px;"/><path d="M255.13,89.08c-.22,0-.44-.12-.55-.33-.16-.31-.04-.68.26-.84.74-.39,1.47-.77,2.18-1.16.3-.16.68-.05.84.25s.05.68-.25.84c-.72.39-1.46.78-2.2,1.17-.09.05-.19.07-.29.07ZM259.49,86.71c-.22,0-.43-.11-.54-.31-.17-.3-.06-.68.23-.85.73-.41,1.44-.82,2.14-1.24.3-.18.68-.08.85.22.18.29.08.68-.22.85-.71.42-1.43.84-2.16,1.25-.1.05-.2.08-.31.08ZM263.77,84.17c-.21,0-.41-.1-.53-.29-.18-.29-.09-.67.2-.86.71-.44,1.4-.88,2.08-1.33.29-.19.67-.11.86.18.19.29.11.67-.18.86-.69.45-1.39.9-2.11,1.34-.1.06-.21.09-.33.09ZM267.93,81.46c-.2,0-.39-.09-.51-.27-.19-.28-.12-.67.16-.86.69-.47,1.36-.95,2.02-1.42.28-.2.67-.14.87.14.2.28.14.67-.14.87-.66.48-1.34.96-2.04,1.44-.11.07-.23.11-.35.11ZM271.95,78.54c-.19,0-.37-.08-.49-.24-.21-.27-.16-.66.12-.87.66-.51,1.31-1.02,1.93-1.53.26-.22.66-.18.87.09.22.27.18.66-.09.87-.64.52-1.29,1.04-1.96,1.55-.11.09-.25.13-.38.13ZM275.8,75.4c-.17,0-.35-.07-.47-.21-.22-.26-.2-.65.06-.88.63-.55,1.24-1.1,1.83-1.65.25-.23.64-.22.88.03.23.25.22.64-.03.88-.6.56-1.22,1.12-1.86,1.67-.12.1-.26.15-.41.15ZM279.43,72.01c-.16,0-.32-.06-.44-.18-.24-.24-.24-.64,0-.88.59-.59,1.16-1.18,1.71-1.77.23-.25.63-.27.88-.03.25.23.27.63.03.88-.56.6-1.14,1.21-1.74,1.81-.12.12-.28.18-.44.18ZM282.81,68.36c-.14,0-.29-.05-.4-.15-.26-.22-.29-.61-.07-.88.54-.63,1.06-1.27,1.55-1.91.21-.27.6-.32.87-.11.27.21.32.6.11.87-.51.65-1.03,1.3-1.59,1.95-.12.14-.3.22-.47.22ZM285.85,64.44c-.12,0-.25-.04-.35-.11-.28-.2-.35-.58-.15-.87.48-.68.93-1.36,1.36-2.04.18-.29.56-.38.86-.2.29.18.38.57.2.86-.44.7-.9,1.4-1.39,2.09-.12.17-.31.27-.51.27ZM288.48,60.23c-.1,0-.2-.02-.3-.08-.3-.17-.41-.54-.24-.84.4-.72.78-1.45,1.12-2.17.15-.31.52-.44.83-.29.31.15.44.52.29.83-.35.74-.74,1.5-1.15,2.24-.11.2-.33.32-.55.32ZM290.62,55.75c-.08,0-.16-.01-.23-.05-.32-.13-.47-.49-.34-.81.3-.75.59-1.52.84-2.29.11-.33.46-.5.79-.39.33.11.5.46.39.79-.27.8-.56,1.6-.87,2.37-.1.24-.33.39-.58.39ZM292.19,51.04c-.05,0-.1,0-.16-.02-.33-.09-.53-.43-.44-.76.2-.79.38-1.59.53-2.38.06-.34.39-.56.73-.5.34.06.56.39.5.73-.15.82-.34,1.65-.55,2.46-.07.28-.32.46-.6.46ZM293.1,46.16s-.05,0-.07,0c-.34-.04-.59-.35-.55-.69.09-.81.16-1.63.2-2.43.02-.34.29-.61.65-.59.34.02.61.31.59.65-.04.83-.11,1.68-.21,2.52-.04.32-.31.55-.62.55ZM199.4,45.82c-.1,0-.2-.02-.29-.07-.3-.16-.42-.54-.26-.84l.82-1.55c.16-.3.54-.42.84-.26.3.16.42.54.26.84l-.82,1.55c-.11.21-.33.33-.55.33ZM201.41,42.09c-.1,0-.2-.02-.3-.08-.3-.17-.41-.55-.24-.84.38-.68.79-1.41,1.23-2.18.17-.3.55-.4.85-.23.3.17.4.55.23.85-.44.76-.85,1.49-1.22,2.16-.11.2-.33.32-.54.32ZM293.34,41.2c-.34,0-.61-.27-.62-.61-.02-.81-.06-1.63-.14-2.44-.03-.34.22-.64.56-.67.33-.03.64.22.67.56.07.84.12,1.69.14,2.52,0,.34-.27.63-.61.63h-.01ZM203.9,37.77c-.11,0-.22-.03-.32-.09-.29-.18-.39-.56-.21-.85.41-.69.85-1.4,1.31-2.13.18-.29.56-.38.86-.2.29.18.38.57.2.86-.45.72-.89,1.43-1.3,2.11-.12.19-.32.3-.53.3ZM292.9,36.25c-.3,0-.57-.22-.61-.52-.13-.8-.28-1.61-.45-2.4-.07-.33.14-.67.47-.74.33-.08.67.14.74.47.18.82.34,1.65.47,2.48.05.34-.18.66-.52.71-.03,0-.07,0-.1,0ZM206.55,33.55c-.12,0-.23-.03-.34-.1-.29-.19-.37-.57-.18-.86.45-.68.91-1.38,1.39-2.08.19-.28.58-.36.86-.16.28.19.36.58.16.86-.48.7-.93,1.38-1.38,2.06-.12.18-.32.28-.52.28ZM291.82,31.4c-.27,0-.52-.18-.6-.45-.22-.77-.47-1.55-.75-2.33-.11-.32.06-.68.38-.79.33-.12.68.06.79.38.28.8.54,1.61.77,2.4.1.33-.1.67-.43.77-.06.02-.12.02-.17.02ZM209.36,29.44c-.13,0-.25-.04-.36-.12-.28-.2-.34-.59-.14-.87.48-.67.97-1.34,1.48-2.02.2-.28.6-.33.87-.13.28.2.33.59.13.87-.5.67-.99,1.34-1.46,2-.12.17-.31.26-.51.26ZM290.17,26.71c-.24,0-.47-.14-.57-.38-.32-.76-.65-1.51-1.01-2.24-.15-.31-.02-.68.29-.83.31-.15.68-.02.83.29.36.75.71,1.52,1.03,2.3.13.32-.02.68-.33.81-.08.03-.16.05-.24.05ZM212.34,25.46c-.13,0-.27-.04-.38-.13-.27-.21-.32-.6-.11-.87.51-.65,1.03-1.3,1.57-1.95.22-.27.61-.3.87-.08s.3.61.08.87c-.53.64-1.05,1.29-1.55,1.93-.12.16-.31.24-.49.24ZM288.01,22.24c-.22,0-.43-.12-.55-.32-.4-.73-.81-1.43-1.24-2.12-.18-.29-.09-.67.2-.86.29-.18.67-.09.86.2.44.7.86,1.43,1.27,2.17.17.3.06.68-.24.84-.1.05-.2.08-.3.08ZM215.5,21.62c-.14,0-.29-.05-.41-.15-.26-.22-.29-.62-.06-.88.54-.63,1.1-1.25,1.67-1.87.23-.25.63-.27.88-.04.25.23.27.62.04.88-.56.61-1.11,1.23-1.64,1.84-.12.14-.3.21-.47.21ZM285.4,18.01c-.2,0-.39-.09-.51-.27-.47-.69-.96-1.35-1.45-1.98-.21-.27-.16-.66.12-.87.27-.21.66-.16.87.12.5.65,1,1.33,1.48,2.03.2.28.12.67-.16.87-.11.07-.23.11-.35.11ZM218.87,17.95c-.16,0-.31-.06-.43-.18-.25-.24-.25-.63-.01-.88.58-.6,1.17-1.19,1.78-1.77.25-.24.64-.23.88.02.24.25.23.64-.02.88-.59.57-1.18,1.16-1.75,1.74-.12.13-.28.19-.45.19ZM222.44,14.49c-.17,0-.34-.07-.46-.2-.23-.26-.21-.65.05-.88.62-.56,1.25-1.11,1.89-1.65.26-.22.65-.19.88.07s.19.65-.07.88c-.63.53-1.25,1.07-1.86,1.62-.12.11-.27.16-.42.16ZM282.36,14.07c-.18,0-.35-.07-.47-.22-.55-.64-1.1-1.25-1.64-1.82-.24-.25-.23-.64.02-.88.25-.24.64-.23.88.02.56.59,1.13,1.21,1.69,1.87.22.26.19.65-.07.88-.12.1-.26.15-.4.15ZM226.26,11.29c-.18,0-.37-.08-.49-.24-.21-.27-.16-.66.11-.87.66-.51,1.33-1.01,2.02-1.5.28-.2.67-.13.87.15s.13.67-.15.87c-.67.48-1.33.97-1.97,1.47-.11.09-.25.13-.38.13ZM278.92,10.49c-.15,0-.3-.05-.42-.16-.61-.56-1.23-1.1-1.85-1.59-.27-.21-.31-.6-.1-.87s.61-.31.87-.1c.64.51,1.29,1.06,1.92,1.65.25.23.27.63.03.88-.12.13-.29.2-.46.2ZM230.31,8.4c-.2,0-.4-.1-.52-.28-.19-.29-.1-.67.18-.86.7-.46,1.42-.9,2.14-1.32.3-.17.68-.07.85.22.17.3.07.68-.22.85-.71.41-1.4.84-2.09,1.29-.1.07-.22.1-.34.1ZM274.92,7.56c-.1,0-.21-.03-.31-.08-.73-.41-1.45-.8-2.16-1.17-.31-.16-.43-.53-.27-.84.16-.31.53-.42.84-.27.73.38,1.47.78,2.21,1.2.3.17.4.55.23.85-.11.2-.32.31-.54.31ZM234.6,5.9c-.22,0-.44-.12-.55-.34-.16-.31-.04-.68.27-.84.75-.38,1.5-.75,2.27-1.1.31-.14.68,0,.82.31.14.31,0,.68-.31.82-.74.34-1.48.69-2.21,1.07-.09.05-.19.07-.29.07ZM270.51,5.29c-.09,0-.17-.02-.26-.06-.76-.35-1.51-.67-2.26-.97-.32-.13-.47-.49-.35-.81.13-.32.49-.48.81-.35.77.31,1.54.64,2.31.99.31.14.45.51.31.82-.1.23-.33.36-.57.36ZM239.14,3.86c-.25,0-.48-.15-.58-.4-.12-.32.04-.68.36-.8.78-.3,1.58-.58,2.38-.84.33-.11.68.08.78.4.1.33-.08.68-.4.78-.77.25-1.55.52-2.31.81-.07.03-.15.04-.22.04ZM265.89,3.45c-.07,0-.13-.01-.2-.03-.79-.27-1.57-.51-2.34-.72-.33-.09-.52-.44-.43-.77.09-.33.43-.52.77-.43.8.22,1.6.47,2.41.74.33.11.5.46.39.79-.09.26-.33.42-.59.42ZM243.87,2.36c-.28,0-.53-.19-.6-.47-.08-.33.12-.67.45-.75.81-.2,1.64-.38,2.47-.53.33-.05.66.16.72.5.06.34-.16.66-.5.72-.8.15-1.6.32-2.39.51-.05.01-.1.02-.15.02ZM261.1,2.12s-.09,0-.13-.01c-.81-.17-1.62-.32-2.41-.44-.34-.05-.57-.37-.52-.71.05-.34.37-.56.71-.52.82.12,1.65.28,2.48.46.34.07.55.4.48.74-.06.29-.32.49-.61.49ZM248.75,1.48c-.31,0-.58-.23-.62-.55-.04-.34.21-.65.55-.69.84-.1,1.68-.16,2.52-.2.33,0,.63.25.65.59s-.25.63-.59.65c-.81.04-1.62.1-2.43.19-.02,0-.05,0-.07,0ZM256.19,1.38s-.04,0-.05,0c-.82-.07-1.64-.12-2.44-.13-.34,0-.62-.29-.61-.63,0-.34.3-.65.63-.61.83.02,1.68.06,2.52.14.34.03.59.33.57.67-.03.32-.3.57-.62.57Z" style="fill:#fff; stroke-width:0px;"/><rect x="196.99" y="42.84" width="5.25" height="4.7" transform="translate(324.45 -116.99) rotate(114.83)" style="fill:#fff; stroke-width:0px;"/><path d="M253.22,19.22c-6.33,8.59-11.98,25.07-2.94,54.77.1.33.45.52.79.42.33-.1.52-.45.42-.79-8.89-29.2-3.41-45.29,2.75-53.65,2.08-2.83,4.44-5,6.8-6.59-.72-.01-1.44,0-2.15.01-1.98,1.54-3.92,3.47-5.66,5.83Z" style="fill:#fff; stroke-width:0px;"/><path d="M288.57,30.55c-3.6-14.25-9.93-21.78-18.29-21.78-2.16.01-4.84.72-7.62,2.18.86.04,1.72.1,2.58.18,1.84-.73,3.57-1.09,5.04-1.1,9.76,0,14.67,11.33,17.07,20.83,7.07,27.96,1.3,76.58-9.8,82.58-.31.17-.42.55-.25.85.11.21.33.33.55.33.1,0,.2-.02.3-.08,11.71-6.33,17.75-55.01,10.42-84Z" style="fill:#fff; stroke-width:0px;"/><path d="M135.66,216.68c2.35,1.11,4.62,1.9,7.06,1.9,3.76,0,6.52-2.11,6.52-5.2,0-7.47-13.42-5.33-13.42-14.58,0-5.2,4.29-7.51,8.17-7.51,2.31,0,4.46.54,6.69,1.49l-.83,2.23c-1.98-.83-3.76-1.32-5.86-1.32-3.59,0-5.62,2.11-5.62,5.12,0,7.06,13.42,5.41,13.42,14.58,0,4.62-3.92,7.6-9.08,7.6-2.64,0-5.16-.74-7.8-2.06l.74-2.23Z" style="fill:#fff; stroke-width:0px;"/><path d="M155.07,210.24c0-5.9,4.25-10.78,10.24-10.78s10.24,4.87,10.24,10.78-4.25,10.74-10.24,10.74-10.24-4.83-10.24-10.74ZM173.07,210.24c0-4.62-3.05-8.46-7.76-8.46s-7.76,3.84-7.76,8.46,3.1,8.42,7.76,8.42,7.76-3.8,7.76-8.42Z" style="fill:#fff; stroke-width:0px;"/><path d="M196.12,219.53c-2.27,1.07-4.5,1.44-6.81,1.44-6.61,0-10.49-4.87-10.49-10.78s3.88-10.74,10.49-10.74c2.31,0,4.58.45,6.85,1.4l-.74,2.15c-2.06-.83-4.09-1.24-6.11-1.24-5.29,0-8.09,4.05-8.09,8.42s2.81,8.46,8.05,8.46c2.06,0,4.05-.58,6.07-1.36l.79,2.23Z" style="fill:#fff; stroke-width:0px;"/><path d="M202.27,191.49c.95,0,1.73.7,1.73,1.65s-.78,1.69-1.73,1.69c-1.03,0-1.73-.74-1.73-1.69s.7-1.65,1.73-1.65ZM201.07,200h2.39v20.44h-2.39v-20.44Z" style="fill:#fff; stroke-width:0px;"/><path d="M225.51,219.74c-2.19.91-4.29,1.24-6.52,1.24-6.32,0-10.2-4.83-10.2-10.74s3.88-10.78,9.5-10.78c6.4,0,9.04,5,9.04,10.65h-16.14c0,4.83,2.85,8.55,7.8,8.55,2.06,0,4.05-.45,6.07-1.24l.45,2.31ZM224.81,208.05c-.58-4.34-3.05-6.28-6.52-6.28-3.22,0-6.11,2.02-6.9,6.28h13.42Z" style="fill:#fff; stroke-width:0px;"/><path d="M233.11,202.06h-2.93v-2.06h2.93v-5.2l2.4-1.07v6.28h5.08v2.06h-5.08v12.39c0,2.73,1.16,4.21,3.8,4.21.78,0,1.61-.12,2.39-.37l.5,2.23c-1.03.29-2.06.45-3.1.45-3.43,0-5.99-2.11-5.99-6.28v-12.63Z" style="fill:#fff; stroke-width:0px;"/><path d="M247.36,227.71c1.53,0,2.64-.91,3.34-3.06l1.36-4.21h-.83l-7.18-20.44h2.52l5.2,15.07c.29.87.7,2.23,1.03,3.39.29-1.16.7-2.48.99-3.39l4.87-15.07h2.52l-8.38,25.72c-.95,2.93-3.06,4.29-5.45,4.29-1.28,0-2.56-.21-3.8-.78l.7-2.19c1.03.45,2.06.66,3.1.66Z" style="fill:#fff; stroke-width:0px;"/><path d="M12.57,69.7h-4.75c-1.1,0-5.56.17-5.56.17l-.29-.35c.17-5.38.29-10.71.29-16.09v-4.05c0-6.72-.06-13.49-.52-20.2l.29-.35h3.99c1.91,0,5.27-.12,6.48-.17l.23.35c-.17,7.93-.29,15.92-.29,23.91,0,5.5.12,11,.41,16.44l-.29.35Z" style="fill:#fff; stroke-width:0px;"/><path d="M47.94,62.29c-.17,2.37-.29,4.86-.41,7.06l-.46.35c-8.45,0-16.96.06-25.47.12l-.29-.41c.23-5.33.29-10.65.29-16.04v-11.98c0-4.11-.06-8.16-.41-12.22l.35-.35c6.31,0,21.59-.12,25.42-.12l.29.35c-.17,2.37-.35,4.46-.41,6.72l-.35.35c-4.98-.12-9.9-.17-14.82-.17,0,1.1-.06,2.66-.06,4.28,0,1.85,0,3.71.06,4.92,4.69,0,9.32-.06,13.95-.23l.35.41c-.17,2.2-.29,4.34-.41,6.54l-.35.35c-8.51-.06-13.55-.06-13.55-.06,0,3.42.06,6.77.12,10.13,5.33,0,10.59-.12,15.86-.41l.29.41Z" style="fill:#fff; stroke-width:0px;"/><path d="M80.47,62.29c-.17,2.37-.29,4.86-.41,7.06l-.46.35c-8.45,0-16.96.06-25.47.12l-.29-.41c.23-5.33.29-10.65.29-16.04v-11.98c0-4.11-.06-8.16-.41-12.22l.35-.35c6.31,0,21.59-.12,25.42-.12l.29.35c-.17,2.37-.35,4.46-.41,6.72l-.35.35c-4.98-.12-9.9-.17-14.82-.17,0,1.1-.06,2.66-.06,4.28,0,1.85,0,3.71.06,4.92,4.69,0,9.32-.06,13.95-.23l.35.41c-.17,2.2-.29,4.34-.41,6.54l-.35.35c-8.51-.06-13.55-.06-13.55-.06,0,3.42.06,6.77.12,10.13,5.33,0,10.59-.12,15.86-.41l.29.41Z" style="fill:#fff; stroke-width:0px;"/><path d="M113.01,62.29c-.17,2.37-.29,4.86-.41,7.06l-.46.35c-8.45,0-16.96.06-25.47.12l-.29-.41c.23-5.33.29-10.65.29-16.04v-11.98c0-4.11-.06-8.16-.41-12.22l.35-.35c6.31,0,21.59-.12,25.41-.12l.29.35c-.17,2.37-.35,4.46-.41,6.72l-.35.35c-4.98-.12-9.9-.17-14.82-.17,0,1.1-.06,2.66-.06,4.28,0,1.85,0,3.71.06,4.92,4.69,0,9.32-.06,13.95-.23l.35.41c-.17,2.2-.29,4.34-.41,6.54l-.35.35c-8.51-.06-13.55-.06-13.55-.06,0,3.42.06,6.77.12,10.13,5.33,0,10.59-.12,15.86-.41l.29.41Z" style="fill:#fff; stroke-width:0px;"/><path d="M2.2,116.85c3.92,1.92,7.76,3.09,11.88,3.09,4.74,0,7.69-2.54,7.69-6.32,0-9.41-20.4-7.21-20.4-22.73,0-8.38,7.01-13.25,14.97-13.25,4.26,0,7.97,1.03,12.09,2.82l-2.34,6.46c-3.37-1.37-6.39-2.2-9.75-2.2-4.4,0-6.59,2.54-6.59,6.18,0,9,20.4,7.62,20.4,22.73,0,8.1-7.07,13.39-16.07,13.39-4.81,0-9.34-1.17-14.08-3.57l2.2-6.59Z" style="fill:#fff; stroke-width:0px;"/><path d="M39.42,76.32c2.4,0,4.74,1.85,4.74,4.46s-2.2,4.6-4.74,4.6c-2.68,0-4.6-1.99-4.6-4.6s2.13-4.46,4.6-4.46ZM35.57,91.43h7.69v34.68h-7.69v-34.68Z" style="fill:#fff; stroke-width:0px;"/><path d="M54.73,132.92c3.43,1.58,6.8,2.33,10.37,2.33,6.46,0,9.68-4.33,9.68-10.37v-3.23c-2.47,2.82-5.91,4.46-10.23,4.46-10.03,0-16.21-8.38-16.21-17.79s6.25-17.79,16.21-17.79c4.46,0,8.04,1.79,10.51,4.74l.41-3.85,7,.69v33.58c0,9.62-7.14,16.35-17.38,16.35-4.33,0-8.38-.82-12.71-3.02l2.33-6.11ZM75.27,108.33c0-6.66-4.33-10.99-9.82-10.99s-9.13,4.74-9.13,10.99,3.3,10.99,9.13,10.99c5.15,0,9.82-3.91,9.82-10.99Z" style="fill:#fff; stroke-width:0px;"/><path d="M89.14,92.12l6.59-.69.69,4.46c2.47-3.57,6.25-5.36,10.99-5.36,6.94,0,11.47,5.08,11.47,13.26v22.32h-7.69v-21.29c0-4.33-1.58-7.49-5.36-7.49-5.56,0-9,4.74-9,12.77v16h-7.69v-34Z" style="fill:#fff; stroke-width:0px;"/><path d="M150.4,122c-2.47,3.09-6.04,5.01-10.58,5.01-10.03,0-16.21-8.79-16.21-18.27s6.46-18.2,16.21-18.2c4.26,0,7.69,1.72,10.23,4.53v-3.64l7.69.69v34h-6.66l-.69-4.12ZM150.53,108.67c0-6.8-4.33-11.33-9.82-11.33s-9.13,5.01-9.13,11.4,3.3,11.47,9.13,11.47c5.15,0,9.82-4.26,9.82-11.54Z" style="fill:#fff; stroke-width:0px;"/><path d="M164.34,76.87l7.69-1.65v42.03c0,2.13.75,3.02,2.75,3.02l-.76,6.66c-5.84,0-9.68-2.13-9.68-8.72v-41.35Z" style="fill:#fff; stroke-width:0px;"/><path d="M2.54,135.03h13.8c9.34,0,16.14,5.29,16.14,14.7s-6.94,14.77-16.21,14.77h-5.77v18.13H2.54v-47.6ZM15.52,157.63c6.8,0,8.93-3.16,8.93-7.9s-2.54-7.69-8.72-7.69h-5.22v15.59h5.01Z" style="fill:#fff; stroke-width:0px;"/><path d="M37.15,148.63l6.59-.69.82,4.94c2.27-3.5,5.77-5.84,11.13-5.84v6.8c-7.01,0-10.85,5.49-10.85,13.39v15.38h-7.69v-34Z" style="fill:#fff; stroke-width:0px;"/><path d="M57.14,165.32c0-9.82,7.28-18.27,17.86-18.27s17.86,8.45,17.86,18.27-7.14,18.2-17.86,18.2-17.86-8.38-17.86-18.2ZM84.88,165.32c0-6.8-4.46-11.47-9.89-11.47s-9.89,4.67-9.89,11.47,4.4,11.4,9.89,11.4,9.89-4.67,9.89-11.4Z" style="fill:#fff; stroke-width:0px;"/><path d="M126.57,181.05c-3.98,1.92-7.83,2.47-11.74,2.47-11.47,0-18.41-8.38-18.41-18.27s6.87-18.2,18.41-18.2c4.05,0,7.9.89,11.88,2.61l-2.2,6.18c-3.16-1.24-6.32-1.99-9.55-1.99-6.73,0-10.58,5.29-10.58,11.4s3.85,11.47,10.58,11.47c3.23,0,6.32-.82,9.55-2.13l2.06,6.46Z" style="fill:#fff; stroke-width:0px;"/><path d="M159.6,181.05c-3.91,1.72-7.55,2.47-11.88,2.47-11.61,0-18.13-8.24-18.13-18.2s6.18-18.27,16.35-18.27,15.93,8.24,15.93,19.5h-24.59c.48,5.56,3.57,10.17,10.64,10.17,3.71,0,6.8-.82,10.17-2.2l1.51,6.52ZM154.1,161.27c-1.1-5.98-4.46-7.42-8.17-7.42s-7.21,1.92-8.38,7.42h16.55Z" style="fill:#fff; stroke-width:0px;"/><path d="M166.05,174.39c3.02,1.37,5.77,2.4,8.72,2.4s4.74-1.58,4.74-3.78c0-5.7-14.29-4.4-14.29-15.8,0-6.32,5.36-10.16,11.54-10.16,3.37,0,6.39.82,9.62,2.27l-2.2,6.11c-2.33-1.03-4.46-1.65-6.87-1.65-2.88,0-4.12,1.37-4.12,3.43,0,5.43,14.29,4.94,14.29,15.93,0,6.18-5.56,10.37-12.43,10.37-3.64,0-7.14-.82-10.85-2.75l1.85-6.39Z" style="fill:#fff; stroke-width:0px;"/><path d="M191.39,174.39c3.02,1.37,5.77,2.4,8.72,2.4s4.74-1.58,4.74-3.78c0-5.7-14.29-4.4-14.29-15.8,0-6.32,5.36-10.16,11.54-10.16,3.37,0,6.39.82,9.62,2.27l-2.2,6.11c-2.33-1.03-4.46-1.65-6.87-1.65-2.88,0-4.12,1.37-4.12,3.43,0,5.43,14.29,4.94,14.29,15.93,0,6.18-5.56,10.37-12.43,10.37-3.64,0-7.14-.82-10.85-2.75l1.85-6.39Z" style="fill:#fff; stroke-width:0px;"/><path d="M221.13,132.84c2.4,0,4.74,1.85,4.74,4.46s-2.2,4.6-4.74,4.6c-2.68,0-4.6-1.99-4.6-4.6s2.13-4.46,4.6-4.46ZM217.28,147.95h7.69v34.68h-7.69v-34.68Z" style="fill:#fff; stroke-width:0px;"/><path d="M231.57,148.63l6.59-.69.69,4.46c2.47-3.57,6.25-5.36,10.99-5.36,6.94,0,11.47,5.08,11.47,13.26v22.32h-7.69v-21.29c0-4.33-1.58-7.49-5.36-7.49-5.56,0-9,4.74-9,12.77v16h-7.69v-34Z" style="fill:#fff; stroke-width:0px;"/><path d="M272.43,189.43c3.43,1.58,6.8,2.33,10.37,2.33,6.46,0,9.68-4.33,9.68-10.37v-3.23c-2.47,2.82-5.91,4.46-10.23,4.46-10.03,0-16.21-8.38-16.21-17.79s6.25-17.79,16.21-17.79c4.46,0,8.04,1.79,10.51,4.74l.41-3.85,7.01.69v33.58c0,9.62-7.14,16.35-17.38,16.35-4.33,0-8.38-.82-12.71-3.02l2.33-6.11ZM292.96,164.84c0-6.66-4.33-10.99-9.82-10.99s-9.13,4.74-9.13,10.99,3.3,10.99,9.13,10.99c5.15,0,9.82-3.91,9.82-10.99Z" style="fill:#fff; stroke-width:0px;"/><path d="M312.49,77.34c-.1.43-.21.87-.32,1.3.15-.43.26-.86.32-1.3Z" style="fill:#fff; stroke-width:0px;"/><path d="M315.06,76.86c.1-1.94-.42-3.85-1.47-5.68-.25,2.09-.62,4.15-1.1,6.16-.06.44-.17.87-.32,1.3-.64,2.41-1.44,4.77-2.4,7.04,3.29-2.6,5.12-5.59,5.29-8.82Z" style="fill:#fff; stroke-width:0px;"/><path d="M198.46,64.04c-.42-.55-1.21-.65-1.75-.23-.55.42-.65,1.21-.23,1.75,3.03,3.95,6.72,7.44,10.86,10.5-.26-1.2-.47-2.42-.65-3.65-3.09-2.52-5.88-5.3-8.24-8.38Z" style="fill:#fff; stroke-width:0px;"/><path d="M266.71,92.23c-18.5-.96-41.2-6.16-57.11-17.59.24,1.22.52,2.42.84,3.6,16.2,10.65,38.13,15.55,56.14,16.48,1.99.1,3.96.15,5.92.15,10.29,0,19.89-1.42,27.51-4.12,2.15-.76,4.08-1.61,5.8-2.53.69-1.35,1.33-2.73,1.91-4.15-2.19,1.62-5.06,3.09-8.54,4.32-8.76,3.1-20.29,4.46-32.46,3.82Z" style="fill:#fff; stroke-width:0px;"/><path d="M209.6,74.64c-1-.72-1.97-1.46-2.91-2.22.18,1.23.39,2.45.65,3.65,1.01.75,2.04,1.48,3.1,2.18-.32-1.19-.6-2.39-.84-3.6Z" style="fill:#fff; stroke-width:0px;"/><path d="M307.71,84.09c-.58,1.42-1.21,2.8-1.91,4.15,1.49-.8,2.82-1.65,3.97-2.56.96-2.27,1.76-4.62,2.4-7.04-.67,1.92-2.19,3.77-4.46,5.45Z" style="fill:#fff; stroke-width:0px;"/><path d="M259.6,11.75c-.11,0-11.69-.8-24.47,5.16-21.37,9.97-29.7,30.78-32.92,46.49-4.25,20.71-13.86,34.88-27.78,40.96-.8.35-1.59.65-2.38.94v1.07c11.57-4.07,25.51-14.89,31.23-42.75,5.74-27.98,20.71-40.29,32.26-45.69,12.53-5.86,23.86-5.09,23.97-5.08.31.03.57-.2.59-.51.02-.3-.2-.57-.51-.59Z" style="fill:#fff; stroke-width:0px;"/></g><g id="Layer_11"><path d="M265.03,200.42h-1.12v-.61h2.93v.61h-1.12v3.54h-.69v-3.54Z" style="fill:#fff; stroke-width:0px;"/><path d="M267.55,199.8h.8l.79,2.67c.06.21.14.52.2.8.07-.28.14-.58.21-.8l.79-2.67h.8l.6,4.16h-.7l-.32-2.39c-.02-.2-.05-.47-.06-.73-.07.26-.15.53-.21.73l-.71,2.35h-.78l-.72-2.35c-.06-.2-.14-.47-.2-.73-.02.26-.04.53-.06.73l-.32,2.39h-.7l.6-4.16Z" style="fill:#fff; stroke-width:0px;"/></g></g></g></svg>