<?xml version="1.0" encoding="UTF-8"?>
<svg version="1.1" xmlns="http://www.w3.org/2000/svg" width="1080" height="1080">
<path d="M0 0 C1.28156959 -0.00427212 2.56313918 -0.00854425 3.88354421 -0.01294583 C7.44348136 -0.02414101 11.00266824 -0.00410689 14.56250978 0.02094448 C18.40023939 0.04250953 22.2379257 0.03523186 26.07569885 0.03143311 C32.72574665 0.0288096 39.37554942 0.04451507 46.02553558 0.0726223 C55.64029078 0.11323418 65.25492732 0.12627713 74.86975899 0.13256226 C90.46859874 0.14350909 106.06730786 0.17679379 121.66607666 0.22407532 C136.82004136 0.26996087 151.97397059 0.30535769 167.12799072 0.32661438 C168.52880881 0.32858481 168.52880881 0.32858481 169.95792624 0.33059504 C174.64285778 0.33712016 179.32778958 0.34343872 184.01272154 0.34965456 C222.88733633 0.40149965 261.7618053 0.48957549 300.6362915 0.60127258 C299.93054733 3.71492656 299.14219424 5.54015902 297.081604 7.99971008 C296.29148926 8.95514709 296.29148926 8.95514709 295.4854126 9.92988586 C294.63197266 10.94284729 294.63197266 10.94284729 293.7612915 11.97627258 C292.56762854 13.41819118 291.37493618 14.86091376 290.1831665 16.30439758 C289.28501221 17.38817688 289.28501221 17.38817688 288.36871338 18.49385071 C285.86894062 21.53472422 283.43424566 24.62405988 281.0112915 27.72627258 C280.56535645 28.29595764 280.11942139 28.8656427 279.65997314 29.45259094 C278.76439968 30.59732232 277.86929541 31.74242092 276.97467041 32.88789368 C270.40617686 41.29681155 263.79404356 49.66860788 257.11920166 57.99336243 C250.87586181 65.78693991 244.72343388 73.65165909 238.5737915 81.51924133 C238.07178223 82.16046936 237.56977295 82.80169739 237.05255127 83.46235657 C236.08832577 84.6940245 235.1252177 85.92656829 234.16339111 87.16011047 C232.39914897 89.41276048 230.66168039 91.57588369 228.6362915 93.60127258 C225.75293412 93.79481424 222.96595073 93.86163618 220.08169556 93.84178162 C219.18568874 93.84349047 218.28968192 93.84519932 217.36652339 93.84695995 C214.34617746 93.8502699 211.32605076 93.83922647 208.3057251 93.82832336 C206.14782212 93.82775958 203.98991875 93.82807518 201.83201599 93.82920837 C195.95832147 93.82978415 190.08470801 93.81799356 184.21103239 93.80406046 C178.07842636 93.79159045 171.94581865 93.79038555 165.8132019 93.78800964 C154.19327164 93.78178388 142.57337884 93.76535826 130.9534651 93.74531066 C117.72755708 93.72298572 104.50164729 93.71196681 91.27572513 93.70191979 C64.06255501 93.68099296 36.84943627 93.64430307 9.6362915 93.60127258 C9.6362915 118.35127258 9.6362915 143.10127258 9.6362915 168.60127258 C-21.3837085 168.60127258 -52.4037085 168.60127258 -84.3637085 168.60127258 C-85.013396 150.28627258 -85.013396 150.28627258 -85.6762085 131.60127258 C-85.84676758 127.77920227 -86.01732666 123.95713196 -86.1930542 120.01924133 C-87.09569734 91.35095487 -87.09569734 91.35095487 -79.19573975 82.60908508 C-77.53247305 80.99318847 -75.83792711 79.5000589 -74.03105164 78.04733276 C-71.15814926 75.55571023 -69.00017273 72.51389565 -66.7387085 69.47627258 C-65.84155373 68.32451491 -64.94213512 67.17451353 -64.03948975 66.02705383 C-63.59814697 65.46196106 -63.1568042 64.89686829 -62.7020874 64.31465149 C-56.13359385 55.90573362 -49.52146056 47.53393729 -42.84661865 39.20918274 C-38.1091314 33.295365 -33.4261534 27.33969503 -28.75335693 21.37471008 C-26.31336748 18.26085144 -23.86976258 15.14983412 -21.4262085 12.03877258 C-20.97753418 11.4669928 -20.52885986 10.89521301 -20.06658936 10.30610657 C-18.83402052 8.73647264 -17.5989286 7.16882095 -16.3637085 5.60127258 C-15.90900051 4.72559033 -15.45429253 3.84990808 -14.98580551 2.94769001 C-10.62476239 -0.95484583 -5.64394075 -0.06814663 0 0 Z " fill="#282828" transform="translate(620.3637084960938,327.3987274169922)"/>
<path d="M0 0 C12.10841944 -0.02312178 24.21683367 -0.04091424 36.32527065 -0.05181217 C41.94707962 -0.05704136 47.56887353 -0.06413966 53.19067383 -0.07543945 C58.61118277 -0.08626706 64.0316772 -0.09227656 69.45219612 -0.09487724 C71.52514945 -0.09673172 73.59810194 -0.10035277 75.67104912 -0.10573006 C78.56383893 -0.1129388 81.45656796 -0.11399101 84.34936523 -0.11352539 C85.21538864 -0.11712067 86.08141205 -0.12071594 86.97367859 -0.12442017 C92.88594784 -0.11405216 92.88594784 -0.11405216 94 1 C94.09443335 3.30053835 94.11742128 5.60402173 94.11352539 7.90649414 C94.11367142 8.62840439 94.11381744 9.35031464 94.1139679 10.09410095 C94.11326869 12.49114947 94.10547595 14.88812123 94.09765625 17.28515625 C94.0957921 18.94282489 94.09436818 20.60049407 94.09336853 22.25816345 C94.08954312 26.62954214 94.07971265 31.00088781 94.06866455 35.37225342 C94.05845092 39.82954461 94.05387101 44.28684111 94.04882812 48.74414062 C94.0380904 57.49610893 94.02101371 66.24805036 94 75 C94.90693226 74.99484627 95.81386452 74.98969254 96.74827957 74.98438263 C119.28473847 74.8564838 141.82121127 74.73131746 164.35770035 74.60884857 C175.25816822 74.54955311 186.15863041 74.48946246 197.05908203 74.42724609 C241.44020659 74.17445457 285.82129289 73.94880808 330.20319653 73.90938759 C332.96599682 73.90627073 335.72878823 73.90133182 338.49158478 73.89585876 C342.76656497 73.88764483 347.04151865 73.88444102 351.31650639 73.88537025 C352.87113867 73.88497233 354.42577156 73.88291523 355.98039913 73.87906456 C358.09371401 73.87418831 360.20693518 73.87554386 362.32025146 73.87854004 C363.49751675 73.87782753 364.67478203 73.87711502 365.88772202 73.87638092 C368.71405296 73.98864224 371.25316839 74.35051442 374 75 C364.79255198 87.35736445 355.29526967 99.49366159 345.82763672 111.65185547 C344.01013402 113.98697983 342.19424212 116.3233471 340.37890625 118.66015625 C333.73444108 127.21235744 327.07052498 135.74850119 320.37060547 144.25732422 C318.88171354 146.15039699 317.39570051 148.04570549 315.91015625 149.94140625 C315.40250732 150.58883789 314.8948584 151.23626953 314.37182617 151.90332031 C313.39363744 153.1509856 312.41591545 154.39901699 311.4387207 155.64746094 C308.11222522 159.88777478 308.11222522 159.88777478 307 161 C303.92013289 161.13585196 300.86157021 161.20587217 297.77996826 161.23464966 C296.80006652 161.2474987 295.82016478 161.26034775 294.81056905 161.27358615 C291.49972964 161.31531248 288.18885837 161.34944809 284.87792969 161.38330078 C282.5146664 161.41082722 280.15140553 161.43856236 277.78814697 161.4664917 C256.17040248 161.71216953 234.55159033 161.8516995 212.93278122 161.96293831 C210.03689167 161.97810551 207.14100382 161.99356307 204.24511719 162.00927734 C203.16548733 162.01511801 203.16548733 162.01511801 202.06404677 162.02107666 C190.42588472 162.08585482 178.78925414 162.21361801 167.1519421 162.36573304 C155.19750662 162.52068936 143.24386582 162.61064953 131.28845525 162.64017475 C124.57797495 162.65853168 117.87086653 162.7080197 111.16133881 162.82797623 C104.84005485 162.93988045 98.52341065 162.97087262 92.2012558 162.94112396 C89.88762557 162.94419232 87.57381545 162.97616591 85.26106262 163.03995132 C68.2550063 163.4850797 68.2550063 163.4850797 62.8009634 159.32111502 C58.88362815 155.31181176 55.92897152 150.83094707 53.15936708 145.97842765 C51.66177457 143.42282773 49.89153528 141.15028196 48.01953125 138.859375 C47.48134766 138.16908203 46.94316406 137.47878906 46.38867188 136.76757812 C45.86853516 136.10177734 45.34839844 135.43597656 44.8125 134.75 C40.85928856 129.67853207 36.91530906 124.60079544 33 119.5 C29.02100935 114.31684112 25.01451165 109.15568718 21 104 C16.80498733 98.60997225 12.61028714 93.21976346 8.4375 87.8125 C7.69371094 86.84957031 6.94992187 85.88664063 6.18359375 84.89453125 C5.46300781 83.93933594 4.74242187 82.98414063 4 82 C3.13552246 81.13777832 2.27104492 80.27555664 1.38037109 79.38720703 C-2.88478032 73.34160396 -1.48166401 64.96958437 -1.26953125 57.91015625 C-1.23773561 56.23868329 -1.20820311 54.56716589 -1.18083191 52.89561462 C-1.10303689 48.51377029 -0.99466127 44.13320468 -0.87976074 39.75219727 C-0.7677908 35.27461895 -0.68495055 30.79651036 -0.59960938 26.31835938 C-0.42813891 17.54479626 -0.22433687 8.77236983 0 0 Z " fill="#282828" transform="translate(536,591)"/>
<path d="M0 0 C155.76 0 311.52 0 472 0 C472 21.78 472 43.56 472 66 C316.24 66 160.48 66 0 66 C0 44.22 0 22.44 0 0 Z " fill="#B5EE7A" transform="translate(158,516)"/>
<path d="M0 0 C113.85 0 227.7 0 345 0 C345 22.11 345 44.22 345 67 C301.19345437 67.02202543 257.38691393 67.04049727 213.58036435 67.05106533 C208.41433469 67.05231611 203.24830504 67.05361042 198.08227539 67.05493164 C197.05376622 67.05519395 196.02525705 67.05545626 194.96558093 67.05572652 C178.28908295 67.06008363 161.61258839 67.06797139 144.93609244 67.0771528 C127.8378702 67.08648822 110.73964976 67.09205537 93.64142507 67.09408849 C83.08197409 67.09546396 72.52253281 67.09981579 61.96308481 67.10791647 C54.73241985 67.11318255 47.50175994 67.11480461 40.2710932 67.11350138 C36.09283787 67.11285778 31.91459954 67.11387794 27.7363472 67.11920547 C23.91762973 67.12403932 20.09894084 67.12433875 16.28022211 67.12089889 C14.89259516 67.12047319 13.50496648 67.12176905 12.11734296 67.12488318 C10.24337384 67.12884707 8.36939405 67.12615641 6.49542332 67.12304783 C5.45081269 67.12342755 4.40620206 67.12380727 3.32993656 67.1241985 C1 67 1 67 0 66 C0 44.22 0 22.44 0 0 Z " fill="#B5EE7A" transform="translate(158,685)"/>
<path d="M0 0 C113.85 0 227.7 0 345 0 C345 22.11 345 44.22 345 67 C301.19345437 67.02202543 257.38691393 67.04049727 213.58036435 67.05106533 C208.41433469 67.05231611 203.24830504 67.05361042 198.08227539 67.05493164 C197.05376622 67.05519395 196.02525705 67.05545626 194.96558093 67.05572652 C178.28908295 67.06008363 161.61258839 67.06797139 144.93609244 67.0771528 C127.8378702 67.08648822 110.73964976 67.09205537 93.64142507 67.09408849 C83.08197409 67.09546396 72.52253281 67.09981579 61.96308481 67.10791647 C54.73241985 67.11318255 47.50175994 67.11480461 40.2710932 67.11350138 C36.09283787 67.11285778 31.91459954 67.11387794 27.7363472 67.11920547 C23.91762973 67.12403932 20.09894084 67.12433875 16.28022211 67.12089889 C14.89259516 67.12047319 13.50496648 67.12176905 12.11734296 67.12488318 C10.24337384 67.12884707 8.36939405 67.12615641 6.49542332 67.12304783 C5.45081269 67.12342755 4.40620206 67.12380727 3.32993656 67.1241985 C1 67 1 67 0 66 C0 44.22 0 22.44 0 0 Z " fill="#B5EE7A" transform="translate(158,336)"/>
</svg>
